<svg xmlns="http://www.w3.org/2000/svg" xmlns:svg="http://www.w3.org/2000/svg" xmlns:xlink="http://www.w3.org/1999/xlink" id="svg2" width="100%" height="100%" version="1.1" viewBox="0 0 48 48"><metadata id="metadata61"/><defs id="defs4"><linearGradient id="linearGradient3764" x1="1" x2="47" gradientTransform="matrix(0,-1,1,0,-1.5e-6,47.999998)" gradientUnits="userSpaceOnUse"><stop id="stop7" stop-color="#31af54" stop-opacity="1"/><stop id="stop9" offset="1" stop-color="#35bf5c" stop-opacity="1"/></linearGradient><clipPath id="clipPath-389701993"><g id="g12" transform="translate(0,-1004.3622)"><path id="path14" fill="#1890d0" d="m -24 13 c 0 1.105 -0.672 2 -1.5 2 -0.828 0 -1.5 -0.895 -1.5 -2 0 -1.105 0.672 -2 1.5 -2 0.828 0 1.5 0.895 1.5 2 z" transform="matrix(15.333333,0,0,11.5,414.99999,878.8622)"/></g></clipPath><clipPath id="clipPath-398118914"><g id="g17" transform="translate(0,-1004.3622)"><path id="path19" fill="#1890d0" d="m -24 13 c 0 1.105 -0.672 2 -1.5 2 -0.828 0 -1.5 -0.895 -1.5 -2 0 -1.105 0.672 -2 1.5 -2 0.828 0 1.5 0.895 1.5 2 z" transform="matrix(15.333333,0,0,11.5,414.99999,878.8622)"/></g></clipPath><linearGradient id="linearGradient3058" x1="1" x2="47" gradientTransform="matrix(0,-1,1,0,-1.5e-6,47.999998)" gradientUnits="userSpaceOnUse" xlink:href="#linearGradient3764"/></defs><g id="g3038" transform="matrix(0.46810503,0,0,0.46810503,13.030895,13.031427)"><g id="g21"><path id="path23" d="m 36.31,5 c 5.859,4.062 9.688,10.831 9.688,18.5 0,12.426 -10.07,22.5 -22.5,22.5 -7.669,0 -14.438,-3.828 -18.5,-9.688 1.037,1.822 2.306,3.499 3.781,4.969 4.085,3.712 9.514,5.969 15.469,5.969 12.703,0 23,-10.298 23,-23 0,-5.954 -2.256,-11.384 -5.969,-15.469 C 39.81,7.306 38.132,6.037 36.31,5 z m 4.969,3.781 c 3.854,4.113 6.219,9.637 6.219,15.719 0,12.703 -10.297,23 -23,23 -6.081,0 -11.606,-2.364 -15.719,-6.219 4.16,4.144 9.883,6.719 16.219,6.719 12.703,0 23,-10.298 23,-23 0,-6.335 -2.575,-12.06 -6.719,-16.219 z" opacity=".05"/><path id="path25" d="m 41.28,8.781 c 3.712,4.085 5.969,9.514 5.969,15.469 0,12.703 -10.297,23 -23,23 -5.954,0 -11.384,-2.256 -15.469,-5.969 4.113,3.854 9.637,6.219 15.719,6.219 12.703,0 23,-10.298 23,-23 0,-6.081 -2.364,-11.606 -6.219,-15.719 z" opacity=".1"/><path id="path27" d="M 31.25,2.375 C 39.865,5.529 46,13.792 46,23.505 c 0,12.426 -10.07,22.5 -22.5,22.5 -9.708,0 -17.971,-6.135 -21.12,-14.75 a 23,23 0 0 0 44.875,-7 23,23 0 0 0 -16,-21.875 z" opacity=".2"/></g><g id="g29"><path id="path31" fill="url(#linearGradient3058)" fill-opacity="1" d="M 24,1 C 36.703,1 47,11.297 47,24 47,36.703 36.703,47 24,47 11.297,47 1,36.703 1,24 1,11.297 11.297,1 24,1 z"/></g><g id="g35"><g id="g37" clip-path="url(#clipPath-389701993)"><g id="g39" transform="translate(1,1)"><g id="g41" opacity=".1"><g id="g43"><path id="path45" fill="#000" fill-opacity="1" fill-rule="evenodd" stroke="none" d="m 15,12 0,7.125 0.004,0 -0.004,2.895 5,0 0,-3 7,0 0,-7 -12,0 m 13,-0.016 0,24 5,0 0,-24 m -12,8 0,16 6,0 0,-16 m -11.996,3 0,13 5,0 0,-13 m -5,0"/></g></g></g></g></g><g id="g47"><g id="g49" clip-path="url(#clipPath-398118914)"><g id="g51"><path id="path53" fill="#f9f9f9" fill-opacity="1" fill-rule="evenodd" stroke="none" d="m 15,12 0,7.125 0.004,0 -0.004,2.895 5,0 0,-3 7,0 0,-7 -12,0 m 13,-0.016 0,24 5,0 0,-24 m -12,8 0,16 6,0 0,-16 m -11.996,3 0,13 5,0 0,-13 m -5,0"/></g></g></g><g id="g55"><path id="path57" d="m 40.03,7.531 c 3.712,4.084 5.969,9.514 5.969,15.469 0,12.703 -10.297,23 -23,23 C 17.045,46 11.615,43.744 7.53,40.031 11.708,44.322 17.54,47 23.999,47 c 12.703,0 23,-10.298 23,-23 0,-6.462 -2.677,-12.291 -6.969,-16.469 z" opacity=".1"/></g></g></svg>