<svg xmlns="http://www.w3.org/2000/svg" xmlns:svg="http://www.w3.org/2000/svg" xmlns:xlink="http://www.w3.org/1999/xlink" id="svg2" width="550" height="600" version="1.1"><defs id="defs4"><linearGradient id="linearGradient4085"><stop id="stop4087" offset="0" stop-color="#241f1c" stop-opacity="1"/><stop id="stop4089" offset="1" stop-color="#241f1c" stop-opacity="0"/></linearGradient><linearGradient id="linearGradient4091" x1="1713.219" x2="-64.65" y1="3945.439" y2="-240.633" gradientTransform="matrix(1.0273061,0,0,1.0568855,-90.449623,149.14834)" gradientUnits="userSpaceOnUse" xlink:href="#linearGradient4085"/></defs><metadata id="metadata7"/><g id="layer1" transform="translate(0,-452.36218)"><rect id="rect3006-47" width="144.245" height="294.662" x="36.541" y="746.564" fill="#483e37" fill-opacity="1" ry="25.623"/><rect id="rect3006-4-1" width="144.245" height="364.869" x="207.878" y="674.663" fill="#483e37" fill-opacity="1" ry="24.555"/><rect id="rect3006-4-3-2" width="144.245" height="554.905" x="381.575" y="483.514" fill="#483e37" fill-opacity="1" ry="26.69"/><rect id="rect3046-3" width="314.434" height="163.345" x="37.579" y="483.93" fill="#483e37" fill-opacity="1" ry="18.149"/><rect id="rect3006-1-41" width="144.245" height="113.415" x="37.427" y="607.712" fill="#483e37" fill-opacity="1" ry="27.453"/><rect id="rect3006-47-7" width="144.245" height="294.662" x="26.74" y="736.828" fill="#052" fill-opacity="1" ry="25.623"/><rect id="rect3006-4-1-1" width="144.245" height="364.869" x="198.076" y="664.928" fill="#052" fill-opacity="1" ry="24.555"/><rect id="rect3006-4-3-2-5" width="144.245" height="554.905" x="371.774" y="473.778" fill="#052" fill-opacity="1" ry="26.69"/><rect id="rect3046-3-8" width="314.434" height="163.345" x="27.778" y="474.195" fill="#052" fill-opacity="1" ry="18.149"/><rect id="rect3006-1-41-3" width="144.245" height="113.415" x="27.626" y="597.976" fill="#052" fill-opacity="1" ry="27.453"/><rect id="rect4043" width="550" height="600" x=".892" y="454.279" fill="url(#linearGradient4091)" fill-opacity="1" ry="85.139"/></g></svg>